<svg xmlns="http://www.w3.org/2000/svg" viewBox="0 0 256 64" role="img" fill="none">
  <title>Bolt horizontal lockup</title>
  <defs>
    <linearGradient id="bolt-energy" x1="10" y1="8" x2="54" y2="56" gradientUnits="userSpaceOnUse">
      <stop offset="0%" stop-color="#39D9FF"/>
      <stop offset="100%" stop-color="#7B61FF"/>
    </linearGradient>
  </defs>

  <!-- Master mark (x=0) -->
  <g>
    <path
      d="M20 8.5 H44 C50.35 8.5 55.5 13.65 55.5 20 V28.2 M55.5 35.8 V44 C55.5 50.35 50.35 55.5 44 55.5 H20 C13.65 55.5 8.5 50.35 8.5 44 V36 M8.5 28 V20 C8.5 13.65 13.65 8.5 20 8.5"
      stroke="url(#bolt-energy)"
      stroke-width="5"
      stroke-linecap="round"
      stroke-linejoin="round"
    />
    <path
      d="M38.5 11 L24.5 30.5 H33.5 L25.5 53 L40.5 33.5 H31.5 Z"
      fill="url(#bolt-energy)"
    />
  </g>

  <!-- Wordmark "bolt" as path geometry for dark surfaces -->
  <g fill="#F5FAFF">
    <!-- b -->
    <path d="M84 18.2 H90.2 V28.1 C91.5 26.7 93.4 25.8 95.7 25.8 C101.7 25.8 105.8 30.3 105.8 36.5 C105.8 42.7 101.7 47.2 95.7 47.2 C93.5 47.2 91.6 46.4 90.2 45 V47 H84 V18.2 Z M90.2 36.5 C90.2 40.2 92.3 42.5 95.2 42.5 C98.1 42.5 100.1 40.2 100.1 36.5 C100.1 32.8 98.1 30.5 95.2 30.5 C92.3 30.5 90.2 32.8 90.2 36.5 Z"/>
    <!-- o -->
    <path d="M123.4 36.5 C123.4 42.8 118.9 47.2 112.7 47.2 C106.5 47.2 102 42.8 102 36.5 C102 30.2 106.5 25.8 112.7 25.8 C118.9 25.8 123.4 30.2 123.4 36.5 Z M117.7 36.5 C117.7 32.8 115.6 30.5 112.7 30.5 C109.8 30.5 107.7 32.8 107.7 36.5 C107.7 40.2 109.8 42.5 112.7 42.5 C115.6 42.5 117.7 40.2 117.7 36.5 Z"/>
    <!-- l -->
    <path d="M128.2 18.2 H134.4 V47 H128.2 V18.2 Z"/>
    <!-- t -->
    <path d="M141.2 22.4 H152.8 V27.2 H147.3 V40.4 C147.3 41.9 148.1 42.7 149.7 42.7 C150.8 42.7 151.8 42.4 152.7 41.9 V46.4 C151.5 46.9 150.1 47.2 148.4 47.2 C144.2 47.2 141.2 44.9 141.2 40.3 V27.2 H137.6 V22.4 H141.2 V18.1 H147.3 V22.4 H141.2 Z"/>
  </g>
</svg>
